<svg width="28" height="29" viewBox="0 0 28 29" fill="none" xmlns="http://www.w3.org/2000/svg">
<path d="M28 14.5C28 22.232 21.732 28.5 14 28.5C6.26801 28.5 0 22.232 0 14.5C0 6.76801 6.26801 0.5 14 0.5C21.732 0.5 28 6.76801 28 14.5Z" fill="black"/>
<path d="M21.4332 16.126C21.4332 16.6378 21.9264 17.0526 22.5341 17.0526C23.1422 17.0526 23.6351 16.6378 23.6351 16.126V14.2802C23.6351 13.7684 23.1422 13.3536 22.5341 13.3536C21.9261 13.3536 21.4332 13.7684 21.4332 14.2802V16.126Z" fill="url(#paint0_linear_2234_732)"/>
<path d="M18.0249 15.0646C18.0249 15.5764 18.5178 15.9912 19.1258 15.9912C19.7339 15.9912 20.2268 15.5764 20.2268 15.0646V13.2188C20.2268 12.707 19.7339 12.2922 19.1258 12.2922C18.5178 12.2922 18.0249 12.707 18.0249 13.2188V15.0646Z" fill="url(#paint1_linear_2234_732)"/>
<path d="M14.6166 16.126C14.6166 16.6378 15.1095 17.0526 15.7175 17.0526C16.3256 17.0526 16.8185 16.6378 16.8185 16.126V14.2802C16.8185 13.7684 16.3256 13.3536 15.7175 13.3536C15.1095 13.3536 14.6166 13.7684 14.6166 14.2802V16.126Z" fill="url(#paint2_linear_2234_732)"/>
<path d="M11.2765 15.0646C11.2765 15.5764 11.7693 15.9912 12.3774 15.9912C12.9854 15.9912 13.4783 15.5764 13.4783 15.0646V13.2188C13.4783 12.707 12.9854 12.2922 12.3774 12.2922C11.7693 12.2922 11.2765 12.707 11.2765 13.2188V15.0646Z" fill="url(#paint3_linear_2234_732)"/>
<path d="M7.80003 16.126C7.80003 16.6378 8.29291 17.0526 8.90096 17.0526C9.50901 17.0526 10.0019 16.6378 10.0019 16.126V14.2802C10.0019 13.7684 9.50901 13.3536 8.90096 13.3536C8.29291 13.3536 7.80003 13.7684 7.80003 14.2802V16.126Z" fill="url(#paint4_linear_2234_732)"/>
<path d="M4.49166 15.0646C4.49166 15.5764 4.98454 15.9912 5.59259 15.9912C6.20064 15.9912 6.69351 15.5764 6.69351 15.0646V13.2188C6.69351 12.707 6.20064 12.2922 5.59259 12.2922C4.98454 12.2922 4.49166 12.707 4.49166 13.2188V15.0646Z" fill="url(#paint5_linear_2234_732)"/>
<circle cx="14" cy="14.5" r="13.5" stroke="white" stroke-opacity="0.4"/>
<path fill-rule="evenodd" clip-rule="evenodd" d="M9.17886 12.8728C8.28945 12.8728 7.60508 13.4759 7.60508 14.1784V15.1498C7.60508 16.022 6.77284 16.6954 5.79131 16.6954C4.80979 16.6954 3.97754 16.022 3.97754 15.1498V14.6304L3.97738 14.6269C3.97718 14.6232 3.97678 14.6171 3.97598 14.6089C3.97438 14.5926 3.97123 14.5684 3.96509 14.5389C3.95271 14.4794 3.92874 14.4014 3.88297 14.3243C3.79584 14.1777 3.62043 14.0174 3.23955 14.0174H2.12C2.05373 14.0174 2 13.9637 2 13.8974C2 13.8311 2.05373 13.7774 2.12 13.7774H3.23955C3.70555 13.7774 3.95914 13.9827 4.08928 14.2017C4.15214 14.3075 4.18388 14.4123 4.20005 14.49C4.20818 14.529 4.21252 14.5619 4.21484 14.5856C4.216 14.5974 4.21666 14.607 4.21704 14.614L4.21741 14.6225L4.21749 14.6252L4.21751 14.6262C4.21752 14.6262 4.21753 14.6268 4.09754 14.6287L4.21751 14.6262L4.21755 14.6287L4.21754 15.1498C4.21754 15.8523 4.90191 16.4554 5.79131 16.4554C6.68071 16.4554 7.36509 15.8523 7.36509 15.1498V14.1784C7.36509 13.3062 8.19733 12.6328 9.17886 12.6328C10.1604 12.6328 10.9926 13.3062 10.9926 14.1784V15.1498C10.9926 15.8523 11.677 16.4554 12.5664 16.4554C13.4558 16.4554 14.1402 15.8523 14.1402 15.1498V14.1784C14.1402 13.3062 14.9724 12.6328 15.9539 12.6328C16.9355 12.6328 17.7677 13.3062 17.7677 14.1784C17.7677 14.1784 17.7677 14.1784 17.7677 14.1784L17.768 15.1498C17.768 15.8523 18.4524 16.4554 19.3418 16.4554C20.2312 16.4554 20.9156 15.8523 20.9156 15.1498V14.1784C20.9156 13.3062 21.7478 12.6328 22.7293 12.6328C23.7109 12.6328 24.5431 13.3062 24.5431 14.1784V15.3863L24.543 15.3885C24.543 15.3901 24.543 15.3924 24.5431 15.3952C24.5432 15.3973 24.5432 15.3997 24.5433 15.4024C24.5439 15.4151 24.5453 15.4342 24.5488 15.4575C24.5558 15.5046 24.5708 15.5655 24.6019 15.6251C24.6326 15.6839 24.6786 15.7408 24.7489 15.7836C24.8191 15.8264 24.9207 15.8595 25.0694 15.8595H26.353C26.4193 15.8595 26.473 15.9132 26.473 15.9795C26.473 16.0457 26.4193 16.0995 26.353 16.0995H25.0694C24.8839 16.0995 24.7376 16.0578 24.624 15.9886C24.5104 15.9193 24.4365 15.8268 24.3892 15.7362C24.3423 15.6464 24.3211 15.5579 24.3114 15.4929C24.3065 15.4601 24.3044 15.4325 24.3036 15.4126C24.3033 15.407 24.3032 15.4019 24.3031 15.3975C24.303 15.3941 24.303 15.3911 24.303 15.3885L24.3031 15.3812L24.3031 15.3803V14.1784C24.3031 13.4759 23.6187 12.8728 22.7293 12.8728C21.8399 12.8728 21.1556 13.4759 21.1556 14.1784V15.1498C21.1556 16.022 20.3233 16.6954 19.3418 16.6954C18.3603 16.6954 17.528 16.022 17.528 15.1498C17.528 15.1498 17.528 15.1498 17.528 15.1498L17.5277 14.1784C17.5277 13.4759 16.8433 12.8728 15.9539 12.8728C15.0645 12.8728 14.3802 13.4759 14.3802 14.1784V15.1498C14.3802 16.022 13.5479 16.6954 12.5664 16.6954C11.5849 16.6954 10.7526 16.022 10.7526 15.1498V14.1784C10.7526 13.4759 10.0683 12.8728 9.17886 12.8728Z" fill="#878787"/>
<defs>
<linearGradient id="paint0_linear_2234_732" x1="0" y1="0.5" x2="0" y2="28.5" gradientUnits="userSpaceOnUse">
<stop stop-color="#9D50BB"/>
<stop offset="1" stop-color="#6E48AA"/>
</linearGradient>
<linearGradient id="paint1_linear_2234_732" x1="0" y1="0.5" x2="0" y2="28.5" gradientUnits="userSpaceOnUse">
<stop stop-color="#00D2FF"/>
<stop offset="1" stop-color="#928DAB"/>
</linearGradient>
<linearGradient id="paint2_linear_2234_732" x1="0" y1="0.5" x2="0" y2="28.5" gradientUnits="userSpaceOnUse">
<stop stop-color="#56AB2F"/>
<stop offset="1" stop-color="#A8E063"/>
</linearGradient>
<linearGradient id="paint3_linear_2234_732" x1="0" y1="0.5" x2="0" y2="28.5" gradientUnits="userSpaceOnUse">
<stop stop-color="#FFE259"/>
<stop offset="1" stop-color="#FFA751"/>
</linearGradient>
<linearGradient id="paint4_linear_2234_732" x1="0" y1="0.5" x2="0" y2="28.5" gradientUnits="userSpaceOnUse">
<stop stop-color="#FF512F"/>
<stop offset="1" stop-color="#F09819"/>
</linearGradient>
<linearGradient id="paint5_linear_2234_732" x1="0" y1="0.5" x2="0" y2="28.5" gradientUnits="userSpaceOnUse">
<stop stop-color="#CB2D3E"/>
<stop offset="1" stop-color="#EF473A"/>
</linearGradient>
</defs>
</svg>
